<svg width="943" height="802" viewBox="0 0 943 802" fill="none" xmlns="http://www.w3.org/2000/svg">
<rect width="943" height="802" rx="18" fill="#A0D7FF"/>
<path d="M163.018 621.073C165.154 595.685 169.661 553.991 189.417 533.458C193.326 536.748 198.452 536.195 202.119 538.734C211.945 545.541 221.113 553.667 230.603 560.874C236.306 565.204 241.346 571.997 238.043 578.354C232.744 588.557 231.797 595.499 230.89 606.278C229.983 617.054 233.685 628.391 234.275 639.235C234.79 648.733 233.417 657.895 233.308 667.384C233.2 676.625 235.069 685.658 230.507 693.884C227.546 699.225 219.193 705.229 213.269 708.448C200.263 715.517 187.949 724.288 176.348 732.941C168.389 738.878 164.069 744.779 152.875 746.67C147.47 747.582 103.979 757.389 114.327 748.287C119.136 744.057 121.387 738.493 121.559 732.614C121.832 723.314 121.253 715.751 126.102 707.08C133.945 693.053 149.061 680.834 159.755 668.188C172.783 652.78 161.571 638.278 163.018 621.073Z" fill="#121A35"/>
<path d="M816.263 617.941C830.208 604.297 853.913 582.133 879.753 575.43C881.33 578.205 885.737 579.127 887.476 581.424C892.136 587.582 895.631 594.316 899.829 600.614C902.353 604.398 903.154 609.398 897.429 612.149C888.234 616.563 884.128 620.207 878.208 625.999C872.29 631.79 869.825 639.001 865.082 645.19C860.929 650.608 855.41 655.388 850.754 660.652C846.22 665.779 843.383 671.266 835.739 674.756C830.775 677.021 821.14 678.362 814.805 678.734C800.897 679.55 786.73 681.482 773.192 683.519C763.907 684.917 757.576 687.17 747.625 685.533C742.82 684.744 702.967 679.762 715.709 677.173C721.627 675.97 726.123 673.409 729.092 670.172C733.788 665.052 736.96 660.695 745.051 657.026C758.138 651.089 776.229 647.908 790.953 643.427C808.892 637.967 806.814 627.185 816.263 617.941Z" fill="#121A35"/>
<path d="M418.75 350.848C416.318 343.71 410.448 333.428 410.448 325.872C412.278 325.872 415.599 328.13 416.914 329.434C419.991 332.485 421.655 336.476 424.656 339.567C426.717 341.69 427.385 344.562 428.886 347.008C430.862 350.228 434.186 353.48 437.186 355.796C441.109 358.821 446.056 360.517 450.117 363.474C454.952 366.997 458.643 371.688 462.168 376.457C466.853 382.791 470.208 389.419 475.578 395.299C482.218 402.572 487.569 410.885 494.255 418.098C500.152 424.463 506.663 430.706 514.846 434.01C520.762 436.4 525.149 438.829 530.251 442.561C545.991 454.078 565.743 460.138 584.445 465.36C601.87 470.227 618.633 476.617 636.165 481.193C643.177 483.024 649.859 484.668 656.996 485.784C662.793 486.692 668.527 488.538 673.757 491.169C683.013 495.824 685.95 506.23 694.189 511.83C701.709 516.94 712.763 516.626 721.327 518.955C729.748 521.245 738.082 523.186 746.788 524.1C761.261 525.621 775.982 524.221 790.445 525.526C805.931 526.922 820.772 532.826 836.339 534.313C846.195 535.255 856.512 533.287 866.27 534.788C869.644 535.308 866.543 536.318 865.551 537.123C863.466 538.817 861.925 541.042 860.842 543.458C860.208 544.871 853.575 546.289 851.944 547.415C848.479 549.805 842.322 550.305 838.174 550.305C832.218 550.305 826.956 553.154 820.976 553.154H801.18C792.857 553.154 784.682 554.119 776.398 554.54C763.953 555.173 751.19 554.523 738.846 556.36C730.039 557.671 721.129 557.94 712.308 559.21C704.723 560.303 697.347 562.417 689.64 562.417C682.594 562.417 671.62 564.306 668.649 555.885C667.393 552.328 668.432 548.247 666.814 544.922C663.802 538.737 657.452 533.091 652.407 528.534C647.068 523.712 641.466 519.377 635.046 516.066C628.213 512.54 621.72 512.542 614.244 512.542H613.897C599.031 512.542 584.285 505.51 569.959 502.212C553.083 498.326 535.432 494.709 519.116 488.912C509.856 485.62 500.245 480.563 491.899 475.374C483.851 470.371 476.737 465.301 472.624 456.652C468.269 447.495 465.884 437.956 459.335 429.934C454.254 423.709 449.157 417.489 444.291 411.092C438.371 403.313 435.115 394.342 431.6 385.324C427.143 373.892 422.707 362.469 418.75 350.848Z" fill="#121A35"/>
<path fill-rule="evenodd" clip-rule="evenodd" d="M309.417 507.876C300.759 505.234 292.1 502.592 283.381 500.066C277.874 498.472 273.453 495.949 269.128 493.48C265.162 491.215 261.275 488.998 256.705 487.584C253.818 486.692 251.692 484.788 249.601 482.916C249.107 482.472 248.613 482.031 248.111 481.604C247.396 480.996 246.11 479.824 245.099 478.799C245.099 478.064 245.052 477.384 244.15 477.001C243.055 476.535 243.873 477.557 245.099 478.799V479.041C245.099 487.42 245.421 496.633 246.159 505.098C247.358 518.865 254.538 530.619 261.756 542.434C264.346 546.67 266.937 550.914 269.262 555.263C270.881 558.293 272.372 561.499 273.881 564.746C277.738 573.035 281.719 581.596 288.29 588.201C295.201 595.146 306.718 598.823 316.793 602.04C317.916 602.4 319.021 602.752 320.1 603.104C336.017 608.283 349.136 616.035 362.823 624.123C364.586 625.165 366.357 626.213 368.147 627.26C372.732 629.947 377.553 632.418 382.383 634.893C392.035 639.842 401.727 644.809 409.666 651.561C420.467 660.747 428.584 674.466 434.387 686.348C440.898 699.679 448.755 714.125 463.741 721.849C474.423 727.356 485.937 730.288 497.506 733.233C505.546 735.28 513.614 737.335 521.443 740.263C525.56 741.805 529.651 743.459 533.751 745.116C544.86 749.605 556.032 754.12 567.984 756.496C578.927 758.671 591.191 758.252 602.988 757.85C607.552 757.692 612.045 757.54 616.366 757.54H757.272C761.857 757.54 766.685 757.718 771.61 757.901C784.103 758.365 797.222 758.852 808.613 756.496C819.175 754.311 830.217 750.243 840.087 746.434C840.901 746.12 851.223 741.632 848.625 741.356C843.332 740.793 837.903 740.903 832.471 741.014C827.841 741.109 823.209 741.203 818.658 740.881C794.845 739.194 771.223 737.351 747.45 735.328C720.145 733.005 696.994 709.168 684.839 690.241C674.419 674.017 664.2 657.298 654.983 640.549C654.001 638.764 653.033 636.974 652.068 635.184C648.507 628.593 644.954 622.017 640.64 615.727C635.701 608.525 629.17 603.036 622.382 597.331C621.367 596.478 620.347 595.62 619.323 594.75C602.756 580.659 581.831 571.633 560.17 564.186C539.249 556.992 517.177 554.268 495.081 551.542C478.884 549.543 462.672 547.541 446.888 543.778C434.161 540.742 421.568 537.159 408.99 533.578C402.557 531.748 396.128 529.918 389.687 528.163C380.608 525.69 371.361 523.73 362.116 521.771C351.292 519.478 340.47 517.186 329.922 514.067C323.066 512.041 316.241 509.96 309.417 507.876ZM367.766 559.436C373.585 563.828 385.087 569.98 392.311 571.874C398.076 573.386 403.785 575.042 409.494 576.697C416.346 578.685 423.198 580.67 430.146 582.411C451.74 587.816 473.865 591.974 495.912 596.117C502.2 597.297 508.483 598.478 514.746 599.686C520.214 600.741 526.217 601.487 532.393 602.255C551.804 604.666 572.94 607.293 584.613 620.379C590.78 627.292 595.995 634.329 600.574 642.116C601.376 643.481 602.509 645.037 603.705 646.68C606.538 650.571 609.725 654.948 609.725 658.442C609.725 663.215 595.761 661.236 592.872 660.436C588.432 659.205 584.187 657.476 579.93 655.742C575.905 654.103 571.871 652.46 567.648 651.229C556.406 647.948 546.099 644.028 535.394 639.742C526.285 636.098 515.872 634.311 505.635 632.553C500.767 631.718 495.939 630.89 491.309 629.871C485.658 628.628 480.089 627.157 474.52 625.687C467.321 623.784 460.12 621.882 452.748 620.473C433.697 616.837 414.132 612.187 398.783 601.396C384.661 591.462 369.277 576.096 367.766 559.436Z" fill="#121A35"/>
<path d="M37.4495 260.693C47.3056 248.509 43.1187 225.266 55.6408 215.69C68.1627 206.115 67.7044 231.066 72.4213 229.612L72.4371 229.608C78.6081 227.705 83.2345 226.281 89.7453 229.76C99.3273 234.883 108.569 241.533 118.801 244.457C126.69 246.713 152.782 252.322 151.246 265.094C149.798 277.133 148.996 290.109 145.982 301.632C143.293 311.906 136.694 349.763 118.095 340.948C110.598 337.393 104.741 328.477 99.8563 321.804C94.1265 313.976 83.9992 307.297 75.5354 302.734C58.4698 293.533 47.8625 288.928 37.9929 271.212C35.3118 266.4 34.1828 264.732 37.4495 260.693Z" fill="#121A35"/>
<path d="M848.434 325.148C826.966 322.106 809.003 312.43 788.567 306.478C767.351 300.298 746.1 297.46 723.973 296.05C711.984 295.288 701.877 294.393 690.084 296.669C683.588 297.922 677.894 299.925 671.75 301.804C669.196 302.585 666.569 302.388 664.121 303.007C658.044 304.543 657.165 315.305 655.653 319.072C650.357 332.27 637.962 343.384 629.594 355.374C621.326 367.221 615.036 378.78 610.1 391.753C607.277 399.176 595.095 402.613 590.194 409.27C588.143 412.055 591.28 403.996 591.446 403.364C592.762 398.384 592.166 392.868 591.421 387.752C590.09 378.619 589.852 369.019 586.684 360.035C581.333 344.86 571.396 331.616 563.026 317.399C559.012 310.586 552.647 304.537 548.637 297.718C545.011 291.551 539.045 286.2 536.644 279.717C535.352 276.229 532.814 273.001 534.194 269.372C535.356 266.32 540.122 268.489 543.162 269.324C551.666 271.664 558.718 274.783 565.713 279.383C569.031 281.564 571.567 284.161 574.742 286.466C578.057 288.875 582.091 290.394 585.524 292.658C589.339 295.174 593.824 298.156 596.663 301.343C598.509 303.417 601.014 309.87 604.135 310.868C611.586 313.25 616.066 306.274 617.903 301.921C619.489 298.159 622.506 294.943 625.896 292.055C630.092 288.478 632.727 283.922 636.955 280.318C643.416 274.81 651.956 272.669 659.385 268.41C669.023 262.887 682.723 261.497 694.831 261.224C698.39 261.142 706.177 261.239 707.203 257.867C708.397 253.948 696.079 251.879 692.828 251.08C684.537 249.047 673.732 251.079 665.268 250.886C657.192 250.703 649.293 251.675 641.234 251.74C626.703 251.858 611.82 249.72 597.275 249.942C594.686 249.98 577.952 250.219 579.53 246.786C580.871 243.866 588.096 240.436 591.293 238.704C596.938 235.645 602.458 231.573 606.698 227.378C610.672 223.445 618.065 219.599 623.768 217.178C629.322 214.819 634.426 212.509 640.965 211.731C659.802 209.485 678.089 216.601 695.915 221.507C717.532 227.457 739.135 234.416 761.85 235.565C775.12 236.235 788.178 235.416 801.458 237.11C810.769 238.298 819.407 238.211 828.665 238.229C843.28 238.258 853.083 231.083 865.972 227.939C871.928 226.486 877.697 224.055 884.096 223.493C891.28 222.863 884.74 231.845 883.459 233.97C875.517 247.16 861.644 255.785 849.915 266.562C842.569 273.313 843.297 281.664 849.928 289.363C858.656 299.499 865.316 310.116 874.832 319.919C877.626 322.795 880.389 326.202 883.008 329.245C884.283 330.725 886.739 334.434 886.467 336.25C885.858 340.316 884.066 339.087 878.867 337.656C874.6 336.482 872.464 334.87 868.931 332.957C864.45 330.53 851.108 326.144 848.434 325.148Z" fill="#121A35"/>
<path d="M452.272 52.961C443.8 53.0487 436.051 53.147 427.786 54.854C431.677 56.6927 438.836 61.1943 442.048 63.8289C446.684 67.6308 453.998 70.1531 459.692 72.6634C463.85 74.4973 467.886 76.7331 471.892 78.7985C476.025 80.9282 480.54 81.5523 485.083 82.7601C506.555 88.4668 526.686 78.1335 548.317 80.5865C560.827 82.0051 571.311 86.8296 583.274 89.421C594.439 91.8399 605.864 93.9382 616.745 97.204C627.887 100.549 637.738 104.075 649.763 104.075C657.897 104.075 666.099 103.444 674.124 103.444C685.791 103.444 696.06 97.1043 707.225 94.9603C711.047 94.2266 715.807 94.5294 719.551 95.5212C723.505 96.5689 723.311 98.9797 724.25 101.832C726.136 107.56 731.217 112.68 734.927 117.608C738.676 122.591 738.805 128.521 741.645 133.699C744.576 139.039 747.063 144.617 750.715 149.651C752.85 152.593 755.611 155.293 756.816 158.66C757.38 160.239 757.265 162.73 759.453 160.869C763.064 157.798 766.289 154.507 769.841 151.403C772.53 149.054 778.003 145.99 778.003 142.569C778.003 137.858 777.443 133.486 776.683 128.826C775.416 121.041 773.2 114.216 768.934 107.231C765.648 101.848 759.279 97.6138 756.816 91.9452C754.492 86.601 757.606 78.6487 759.619 73.645C762.74 65.8865 769.156 60.1783 776.519 55.1346C777.713 54.317 790.317 44.7573 785.01 44.7573C779.663 44.7573 774.107 45.5011 768.852 46.37C755.024 48.6568 741.057 49.8988 727.219 52.0846C707.284 55.2329 686.9 57.9068 666.705 59.5868C656.317 60.4512 645.814 61.1733 635.459 59.6219C624.334 57.9552 613.105 56.1281 602.028 54.223C593.315 52.7241 584.762 51.4035 575.935 50.4368C568.874 49.6633 561.832 49.9761 554.748 49.4902C533.951 48.0638 513.171 46.4587 492.338 48.2632C478.942 49.4237 465.763 52.821 452.272 52.961Z" fill="#121A35"/>
<path d="M792.082 359.929C801.722 358.852 811.336 359.318 820.938 357.761L869.025 349.487C869.067 351.755 865.981 355.265 864.092 356.779C859.993 360.064 859.346 366.62 856.949 370.861C854.122 375.868 851.827 380.761 848.027 385.213C842.989 391.119 832.644 395.012 825.638 398.91C815.156 404.74 804.119 409.79 793.716 415.71C782.079 422.333 770.175 429.896 757.086 434.28C732.422 442.542 710.475 439.971 684.799 437.201C670.622 435.672 657.75 434.966 643.464 435.925C636.849 436.368 642.502 432.871 644.903 429.936C657.001 415.146 668.28 399.085 686.315 389.053C700.047 381.413 713.77 377.118 729.216 372.508C741.883 368.727 755.358 364.578 768.713 363.11C776.544 362.25 784.263 360.804 792.082 359.929Z" fill="#121A35"/>
<path d="M193.409 114.242C156.22 111.908 141.767 70.3673 141.767 70.3673C141.767 70.3673 194.769 75.7988 200.563 79.1972C210.381 84.9558 220.596 87.1731 232.195 89.2164C247.96 91.9939 263.293 96.6051 279.264 98.5036C296.526 100.556 313.904 102.775 330.852 106.327C339.029 108.041 347.066 111.264 355.488 111.908C365.514 112.675 377.379 111.725 387.388 110.856C398.744 109.87 410.416 110.264 421.761 111.085C431.223 111.77 440.934 111.807 450.433 112.137C459.982 112.468 469.305 113.871 478.889 113.738C491.624 113.562 504.037 111.268 516.922 111.268C525.26 111.268 529.108 114.475 536.448 116.849C553.633 122.407 569.728 130.093 587.014 135.973C596.651 139.251 605.232 142.883 614.234 147.136C623.695 151.606 636.244 153.329 646.724 154.456C665.047 156.426 682.521 159.174 700.409 163.147C704.875 164.14 716.097 164.197 713.214 169.92C709.14 178.004 698.523 175.734 689.652 176.69C668.346 178.987 644.473 181.244 623.27 176.737C601.036 172.008 577.314 174.486 554.791 171.75C546.61 170.755 538.342 170.184 530.209 168.912C518.754 167.121 508.051 163.9 496.75 161.593C488.383 159.885 479.747 158.865 471.306 157.43C466.704 156.647 461.582 155.407 456.834 155.92C450.79 156.573 453.666 158.711 456.135 161.135C460.473 165.391 466.253 170.019 469.207 175.043C473.373 182.128 475.24 190.76 477.707 198.376C480.83 208.019 484.479 217.1 486.152 227.06C487.789 236.81 489.257 246.312 491.693 255.929C497.5 278.865 503.832 301.375 511.596 323.913C516.13 337.074 520.687 350.394 521.439 364.174C521.558 366.337 522.35 367.213 520.794 366.095C518.676 364.57 515.932 363.745 513.748 362.252C506.285 357.151 499.713 351.207 492.391 345.965C484.968 340.648 477.271 335.972 470.176 330.273C434.719 301.792 435.638 257.447 429.023 219.191C427.947 212.968 428.471 206.653 427.356 200.389C425.998 192.769 423.801 185.486 420.308 178.382C416.455 170.545 411.61 163.154 403.149 158.207C394.119 152.928 384.889 153.336 374.316 153.266C356.401 153.148 340.691 148.442 323.966 143.384C303.944 137.33 283.515 132.318 263.178 127.097C240.305 121.224 217.341 115.743 193.409 114.242Z" fill="#121A35"/>
<path d="M-0.000976562 191.379V80.5071C2.90685 75.2476 5.06129 69.6057 7.26523 63.834C10.4016 55.6204 13.6383 47.1442 19.2894 39.134L40.0765 20.6466C41.9467 23.2789 41.4325 41.4641 40.9028 60.2041C40.3241 80.6763 39.7266 101.811 42.1982 104.055C44.7434 106.365 53.5454 92.4585 63.3392 76.9852C71.7634 63.6755 80.9214 49.2066 87.4622 42.9021L118.345 24.0551C113.253 37.6254 111.869 51.3273 110.473 65.1376C109.089 78.841 107.693 92.651 102.654 106.545C98.4109 114.563 93.3345 122.016 88.238 129.498C84.8143 134.525 81.3816 139.565 78.1865 144.798C76.3528 147.801 74.6818 150.855 73.0257 153.881C67.689 163.632 62.5084 173.099 52.5471 179.686C44.0722 185.294 27.6163 188.611 16.7987 189.53C11.2167 190.005 5.61027 190.632 -0.000976562 191.379Z" fill="#121A35"/>
<path d="M-0.000976562 561.178V284.755C0.783368 285.307 1.52206 285.865 2.19498 286.437C3.58704 287.621 4.98234 288.774 6.3667 289.92C11.4822 294.151 16.4484 298.257 20.55 303.297C25.6426 309.553 27.6695 318.569 29.5191 326.796C30.1792 329.733 30.8166 332.568 31.5629 335.141C33.5626 342.04 35.2323 348.997 36.9014 355.951C38.774 363.753 40.6463 371.554 42.9838 379.267C43.8183 382.021 44.6914 384.796 45.5697 387.589C49.896 401.34 54.3516 415.503 54.9757 429.567C56.3648 460.876 42.5796 484.313 26.5716 511.531C26.2781 512.03 25.9841 512.531 25.6893 513.031C16.6451 528.415 9.50584 542.704 4.316 559.377C3.01626 563.554 1.58797 563.113 -0.000976562 561.178Z" fill="#121A35"/>
<path d="M-0.000976562 798.41V666.574C2.1908 663.857 4.33882 661.119 6.44012 658.362C13.3898 649.238 19.5725 639.356 24.1866 629.206C28.4957 619.724 31.9748 610.841 35.3494 602.226C42.8431 583.095 49.8215 565.278 64.2311 545.145C70.8892 535.842 78.2373 526.027 86.6464 517.842C91.0939 513.512 95.2137 509.013 99.3288 504.517C104.98 498.343 110.622 492.179 117.093 486.482L168.123 441.554C169.283 440.532 170.479 439.324 171.717 438.075C174.527 435.239 177.553 432.183 180.867 430.59C181.727 430.177 182.633 429.76 183.56 429.334C187.247 427.639 191.271 425.791 194.022 423.369C195.427 422.131 196.651 422.641 197.668 424.134C198.364 425.159 195.837 427.921 194.379 429.514C194.001 429.926 193.694 430.262 193.536 430.467C188.172 437.388 184.1 444.844 180.009 452.333C178.093 455.842 176.173 459.358 174.114 462.829C167.659 473.712 158.139 482.615 148.602 491.533C143.912 495.918 139.218 500.307 134.882 504.937C117.366 523.646 107.464 546.082 100.025 568.975C98.2585 574.411 95.9883 579.738 93.7192 585.062C90.9698 591.513 88.2223 597.961 86.3744 604.594C84.1101 612.72 82.3991 620.968 80.6885 629.212C79.4864 635.006 78.2846 640.799 76.8912 646.548C74.9639 654.499 72.6021 662.36 70.2406 670.222C67.6359 678.893 65.0313 687.561 63.0108 696.349C62.2617 699.607 61.7095 702.918 61.1565 706.233C60.2641 711.586 59.3699 716.946 57.644 722.109C55.0557 729.852 50.5281 737.019 45.7128 743.901L33.4898 758.639C30.6367 763.709 26.055 768.056 21.569 772.311C20.1762 773.633 18.7924 774.945 17.4726 776.268C14.0932 779.654 11.4028 783.512 8.71615 787.363C6.0339 791.208 3.35542 795.048 -0.000976562 798.41Z" fill="#121A35"/>
<path d="M313.819 804H268.389C268.438 803.461 268.483 802.925 268.527 802.396C269.064 795.902 269.968 789.4 270.873 782.896C272.261 772.913 273.649 762.923 273.713 752.94C273.787 741.722 274.215 730.239 276.176 719.121C277.212 713.252 279.92 707.755 282.617 702.281C283.945 699.586 285.271 696.898 286.393 694.171C288.004 690.256 290.252 690.678 294.356 693.056C303.68 698.463 312.38 704.348 321.15 710.283C323.266 711.714 325.384 713.146 327.517 714.577C336.653 720.703 346.453 725.778 356.33 730.893C357.951 731.733 359.579 732.576 361.203 733.424C365.045 735.428 368.936 737.357 372.826 739.287C376.512 741.114 380.195 742.941 383.835 744.83C386.936 746.439 389.819 748.303 392.703 750.165C395.707 752.108 398.714 754.048 401.961 755.702C415.154 762.413 428.339 768.677 442.459 773.88C451.307 777.141 459.726 780.895 468.181 784.664C472.483 786.582 476.794 788.504 481.173 790.366C489.383 793.858 497.663 796.546 506.634 798.03C507.274 798.136 507.947 798.243 508.647 798.354C513.513 799.13 519.597 800.101 523.557 801.995C524.597 802.492 525.332 803.193 525.896 804H401.465C398.033 802.162 394.625 800.192 391.17 798.03C383.126 792.995 374.081 788.756 365.237 784.797C362.595 783.613 359.8 782.608 357.003 781.6C352.988 780.155 348.967 778.708 345.381 776.732C340.553 774.069 335.81 771.587 330.346 769.96C326.429 768.794 324.292 769.857 322.961 773.256C321.186 777.783 320.094 782.652 319.011 787.48C318.408 790.17 317.806 792.847 317.091 795.446C316.286 798.378 315.117 801.206 313.819 804Z" fill="#121A35"/>
<path d="M936.806 804H841.495C842.948 794.997 845.607 785.511 848.973 777.406C849.275 776.679 849.577 775.951 849.879 775.221C853.939 765.403 858.087 755.372 864.946 746.668C871.594 738.234 879.249 731.126 887.527 723.837C907.658 706.114 926.56 686.945 943 666.573V798.409C942.525 798.883 942.038 799.347 941.536 799.801C939.984 801.203 938.408 802.605 936.806 804Z" fill="#121A35"/>
<path d="M943 284.755V561.18C942.374 560.418 941.723 559.425 941.046 558.392C940.263 557.197 939.443 555.948 938.587 554.937C936.184 552.108 933.736 549.285 931.284 546.455C915.813 528.609 900.101 510.484 893.8 488.748C888.24 469.574 887.927 451.977 887.927 432.273C887.927 431.527 887.925 430.778 887.925 430.027C887.916 414.526 887.906 398.137 891.678 383.014C892.853 378.303 893.779 373.552 894.705 368.804C895.605 364.185 896.504 359.565 897.634 354.984C898.856 350.03 900.529 345.217 902.2 340.409C904.394 334.1 906.585 327.798 907.749 321.196L917.294 262.709C920.873 263.725 924.938 268.872 926.431 271.729C928.51 275.707 933.376 278.7 938.057 281.58C939.779 282.639 941.474 283.683 943 284.755Z" fill="#121A35"/>
<path d="M943 191.38C924.736 193.811 906.423 197.512 888.74 201.368C885.005 202.182 881.552 203.114 878.233 204.009C867.451 206.917 858.071 209.447 845.081 206.353C843.976 206.09 841.784 205.637 838.876 205.039C820.174 201.186 771.751 191.211 790.577 185.668C800.686 182.692 808.364 176.355 813.434 168.348C814.492 166.678 815.503 165.042 816.495 163.436C823.028 152.87 828.69 143.709 840.684 135.827C855.239 126.262 873.418 119.589 891.273 113.035C900.833 109.525 910.299 106.05 919.067 102.184C931.433 96.7303 938.23 89.132 943 80.5048V191.38Z" fill="#121A35"/>
<path d="M925.366 2C912.966 12.7999 899.008 23.2147 883.171 29.882C880.889 30.8433 878.688 31.8857 876.498 32.9234C872.426 34.8533 868.39 36.7661 863.924 38.106C862.864 38.424 861.721 38.7504 860.535 39.0898C855.417 40.5525 849.445 42.2593 845.494 44.5849C842.554 46.3153 839.553 47.9907 836.519 49.6011C836.306 49.7145 835.702 50.1054 834.918 50.6153C832.502 52.1856 828.351 54.8834 828.458 54.0681C829.167 48.7341 829.726 43.9646 828.809 38.4969C827.404 30.1244 828.113 21.6344 828.813 13.2366C828.903 12.1481 828.994 11.0611 829.08 9.97613C829.284 7.39576 829.612 4.71992 830.052 2H925.366Z" fill="#121A35"/>
<path d="M525.892 2H401.454C409.451 6.28254 417.574 9.84287 426.691 13.4122C435.979 17.0497 445.579 19.7144 455.192 22.383C461.659 24.178 468.132 25.975 474.521 28.0709C486.709 32.0694 497.395 34.3836 510.618 32.9275C513.33 32.6289 544.096 28.2602 543.202 25.8877C542.506 24.0369 540.305 22.3065 538.153 20.6151C536.561 19.3622 534.994 18.1306 534.087 16.8876C531.313 13.0861 528.774 8.83076 527.171 4.59024C526.828 3.68186 526.443 2.78919 525.892 2Z" fill="#121A35"/>
<path d="M313.823 2H268.389C268.048 5.79967 267.597 9.82519 267.131 13.9761C265.422 29.1993 263.525 46.1092 266.169 59.7499C268.961 59.7499 270.509 55.6081 271.695 52.4344C272.082 51.3987 272.431 50.466 272.77 49.8141C274.773 45.9826 279.643 42.4965 283.813 39.5111C284.939 38.7048 286.014 37.9351 286.968 37.2049C288.271 36.2074 289.635 35.2166 291.012 34.2149C297.582 29.4361 304.489 24.4122 306.93 17.244C308.189 13.5425 309.934 9.99424 311.675 6.45296C312.403 4.97099 313.131 3.49026 313.823 2Z" fill="#121A35"/>
<path d="M156.247 206.978C164.922 219.56 173.605 232.153 178.785 246.13C182.753 256.836 185.093 268.755 186.958 279.859C188.779 290.701 193.1 300.832 198.694 310.691C200.156 313.271 201.513 316.025 202.89 318.82C206.417 325.974 210.076 333.401 215.981 338.851C221.424 343.873 227.342 348.58 233.259 353.287C238.043 357.094 242.828 360.898 247.362 364.871C251.958 368.899 256.449 373.045 260.941 377.195C276.252 391.336 291.61 405.52 311.433 415.219C318.474 418.663 326.095 420.66 333.745 422.667C336.687 423.437 339.633 424.21 342.552 425.066C350.455 427.384 357.853 431.155 364.818 435.046C366.721 436.11 368.836 436.913 370.952 437.717C373.417 438.654 375.882 439.59 378.013 440.939L378.177 441.061C380.161 442.539 381.668 443.689 382.185 444.085C381.817 443.803 380.915 443.102 379.329 441.863C378.909 441.535 378.469 441.228 378.013 440.939C376.093 439.514 374.16 438.113 372.234 436.719C363.372 430.307 354.653 423.996 348.001 415.575C339.869 405.281 334.171 391.392 334.171 378.906C334.171 368.612 341.257 358.943 347.494 350.434L347.688 350.167C354.872 340.362 361.346 329.797 366.024 318.934C374.118 300.134 380.961 279.231 382.892 259.185C383.428 253.642 383.313 248.009 383.198 242.406C383.15 240.061 383.101 237.719 383.101 235.393C383.101 229.463 382.353 222.034 377.392 217.393C366.24 206.961 348.765 202.635 333.249 198.795C332.006 198.487 330.774 198.182 329.562 197.877C329.311 197.815 329.06 197.751 328.809 197.688C332.353 200.325 335.008 203.336 335.008 206.911C335.008 212.61 330.746 216.902 326.506 221.172C324.119 223.577 321.738 225.973 320.132 228.61C317.484 232.952 314.672 237.212 311.86 241.471C309.078 245.686 306.296 249.9 303.68 254.184C301.979 256.972 299.544 259.325 297.105 261.683C295.202 263.523 293.298 265.366 291.736 267.417C287.832 272.548 287.843 277.468 287.858 283.266C287.858 283.609 287.858 283.954 287.858 284.304C287.858 288.694 287.623 293.06 287.387 297.422C287.151 301.778 286.915 306.131 286.915 310.502V332.291C286.915 332.652 286.919 332.99 286.923 333.298C286.945 335.868 286.953 336.522 284.978 333.582C283.813 331.85 282.593 330.117 281.365 328.376C276.884 322.016 272.301 315.515 269.994 308.319C267.944 301.926 268.044 295.362 268.144 288.802C268.24 282.572 268.336 276.345 266.59 270.269C262.088 254.609 251.068 241.461 240.199 228.494C237.259 224.985 234.328 221.49 231.54 217.961C228.515 214.131 225.509 210.249 222.493 206.356C214.996 196.676 207.445 186.927 199.428 177.728C196.548 174.424 193.555 171.289 190.379 168.372C185.665 166.477 180.143 165.555 174.875 164.676C173.482 164.443 172.107 164.214 170.77 163.97C146.459 156.494 134.664 148.444 129.692 145.05C127.464 143.53 126.606 142.944 126.606 143.765C127.613 156.901 134.005 170.624 140.489 182.416C145.121 190.841 150.683 198.907 156.247 206.978Z" fill="#121A35"/>
</svg>
